<svg width="41" height="34" viewBox="0 0 41 34" fill="none" xmlns="http://www.w3.org/2000/svg">
<path d="M1 9.02867L15.0455 1L29 8.97133L14.9545 17L1 9.02867Z" fill="black" stroke="#533CD9" stroke-width="1.5" stroke-linecap="round" stroke-linejoin="round"/>
<path d="M14.9545 17.0355L29 9V24.9645L14.9545 33V17.0355ZM1 9.0574L14.9545 17.0355V33L1 25.0219V9.0574Z" fill="black" stroke="#533CD9" stroke-width="1.5" stroke-linecap="round" stroke-linejoin="round"/>
<path d="M29 9.01075L34.5179 6L40 8.98925L34.4821 12L29 9.01075Z" fill="black" stroke="#533CD9" stroke-width="1.5" stroke-linecap="round" stroke-linejoin="round"/>
<path d="M34.4821 12L40 9V15.6519L34.4821 19V12ZM29 9.02392L34.4821 12V19L29 15.6758V9.02392Z" fill="black"/>
<path d="M34.4821 12L40 9V15.6519L34.4821 19M34.4821 12V19M34.4821 12L29 9.02392V15.6758L34.4821 19" stroke="url(#paint0_linear_77_13)" stroke-width="1.5" stroke-linecap="round" stroke-linejoin="round"/>
<path d="M29 22.0108L34.5179 19L40 21.9892L34.4821 25L29 22.0108Z" fill="black" stroke="#533CD9" stroke-width="1.5" stroke-linecap="round" stroke-linejoin="round"/>
<path d="M34.4821 25L40 22V28.6519L34.4821 32V25ZM29 22.0239L34.4821 25V32L29 28.6758V22.0239Z" fill="black"/>
<path d="M34.4821 25L40 22V28.6519L34.4821 32M34.4821 25V32M34.4821 25L29 22.0239V28.6758L34.4821 32" stroke="url(#paint1_linear_77_13)" stroke-width="1.5" stroke-linecap="round" stroke-linejoin="round"/>
<rect x="4" y="16" width="2" height="3" rx="1" fill="#533CD9"/>
<rect x="10" y="18" width="2" height="3" rx="1" fill="#533CD9"/>
<path d="M8.90137 22.8042L8.7945 22.8861C8.03138 23.471 6.9766 23.4917 6.1911 22.9372V22.9372" stroke="#533CD9" stroke-width="1.5" stroke-linecap="round"/>
<path d="M5.49512 22L5.54505 22.1157C5.90327 22.9454 6.76629 23.439 7.66311 23.3271V23.3271" stroke="#533CD9" stroke-width="1.5" stroke-linecap="round"/>
<defs>
<linearGradient id="paint0_linear_77_13" x1="34.5" y1="9" x2="34.5" y2="19" gradientUnits="userSpaceOnUse">
<stop stop-color="#533CD9"/>
<stop offset="1" stop-color="#5C2EE0"/>
</linearGradient>
<linearGradient id="paint1_linear_77_13" x1="34.5" y1="22" x2="34.5" y2="32" gradientUnits="userSpaceOnUse">
<stop stop-color="#533CD9"/>
<stop offset="1" stop-color="#5C2EE0"/>
</linearGradient>
</defs>
</svg>
